<svg width="1280" height="360" viewBox="0 0 1280 360" xmlns="http://www.w3.org/2000/svg" role="img" aria-label="MXW primary logo for dark backgrounds">
  <defs>
    <linearGradient id="mxwTracePrimaryDark" x1="84" y1="52" x2="610" y2="316" gradientUnits="userSpaceOnUse">
      <stop offset="0%" stop-color="#F8E7B9" />
      <stop offset="52%" stop-color="#D4AF37" />
      <stop offset="100%" stop-color="#7A5810" />
    </linearGradient>
    <filter id="mxwTraceGlowPrimaryDark" x="-25%" y="-25%" width="150%" height="150%">
      <feGaussianBlur stdDeviation="2" result="blur" />
      <feMerge>
        <feMergeNode in="blur" />
        <feMergeNode in="SourceGraphic" />
      </feMerge>
    </filter>
  </defs>

  <rect width="1280" height="360" fill="none" />

  <g transform="translate(70 40)">
    <rect x="0" y="0" width="280" height="280" rx="34" fill="#0C0C0E" />
    <path d="M28 14H252L266 28V252L252 266H28L14 252V28Z" fill="none" stroke="#1E1E21" stroke-width="2.6" />
    <path d="M34 20H246L260 34V246L246 260H34L20 246V34Z" fill="none" stroke="#D4AF37" stroke-opacity="0.22" stroke-width="1.6" />

    <line x1="140" y1="44" x2="140" y2="236" stroke="#1E1E21" stroke-width="2.2" opacity="0.9" />
    <line x1="44" y1="140" x2="236" y2="140" stroke="#1E1E21" stroke-width="1.4" opacity="0.7" />

    <g fill="none" stroke="url(#mxwTracePrimaryDark)" stroke-width="16" stroke-linecap="round" stroke-linejoin="round" filter="url(#mxwTraceGlowPrimaryDark)">
      <path d="M48 224V54L86 126L140 74L194 126L232 54V224" />
      <path d="M48 80L88 226L140 150L192 226L232 80" />
    </g>

    <g fill="none" stroke-linecap="round">
      <path d="M114 98L166 174M166 98L114 174" stroke="#0C0C0E" stroke-width="12.8" />
      <path d="M114 98L166 174M166 98L114 174" stroke="#F8E7B9" stroke-opacity="0.75" stroke-width="4.2" />
    </g>

    <circle cx="140" cy="110" r="4.6" fill="#FCFCFC" />
    <circle cx="92" cy="204" r="2.2" fill="#FCFCFC" fill-opacity="0.92" />
    <circle cx="188" cy="204" r="2.2" fill="#FCFCFC" fill-opacity="0.92" />
  </g>

  <line x1="390" y1="76" x2="390" y2="284" stroke="#1E1E21" stroke-width="2" />

  <g fill="none" stroke="url(#mxwTracePrimaryDark)" stroke-width="8" stroke-linecap="round" stroke-linejoin="round">
    <path d="M448 132V84L464 114L482 96L500 114L516 84V132" />
    <path d="M448 90L463 134L482 108L501 134L516 90" />
  </g>
  <path d="M472 97L492 123M492 97L472 123" fill="none" stroke="#0C0C0E" stroke-width="5" stroke-linecap="round" />
  <path d="M472 97L492 123M492 97L472 123" fill="none" stroke="#F8E7B9" stroke-opacity="0.75" stroke-width="1.8" stroke-linecap="round" />
  <circle cx="482" cy="109" r="1.5" fill="#FCFCFC" />

  <text x="548" y="182" fill="#FCFCFC" font-family="'Noto Sans SC', 'Inter', sans-serif" font-size="82" font-weight="600" letter-spacing="3">
    MASONS<tspan fill="#D4AF37">.XU</tspan>
  </text>
  <text x="548" y="236" fill="#A1A1AA" font-family="'JetBrains Mono', monospace" font-size="24" letter-spacing="4.8">
    DISTRIBUTED SYSTEMS
  </text>
  <line x1="548" y1="256" x2="1008" y2="256" stroke="#D4AF37" stroke-opacity="0.34" />
</svg>
